<svg width="291" height="40" viewBox="0 0 291 40" fill="none" xmlns="http://www.w3.org/2000/svg">
<path d="M19.032 17.064C19.864 17.064 20.728 17.24 21.624 17.592C22.52 17.944 23.384 18.408 24.216 18.984H24.168C25 19.56 25.64 20.344 26.088 21.336C26.536 22.328 26.76 23.464 26.76 24.744V31.32C26.76 33.912 25.896 35.848 24.168 37.128C23.336 37.736 22.472 38.216 21.576 38.568C20.712 38.888 19.864 39.048 19.032 39.048H8.568C7.736 39.048 6.872 38.888 5.976 38.568C5.112 38.216 4.264 37.736 3.432 37.128C1.704 35.848 0.84 33.912 0.84 31.32V28.152C0.84 26.648 1.784 25.896 3.672 25.896C5.592 25.896 6.552 26.648 6.552 28.152V30.936C6.552 31.768 6.792 32.52 7.272 33.192C7.752 33.864 8.584 34.2 9.768 34.2H17.832C19.016 34.2 19.848 33.864 20.328 33.192C20.808 32.52 21.048 31.768 21.048 30.936V25.128C21.048 24.328 20.808 23.592 20.328 22.92C19.848 22.216 19.016 21.864 17.832 21.864H8.568C6.904 21.864 5.192 21.256 3.432 20.04C1.704 18.696 0.84 16.76 0.84 14.232V8.52C0.84 7.24 1.064 6.12 1.512 5.16C1.96 4.168 2.6 3.368 3.432 2.76H3.384C4.216 2.216 5.08 1.768 5.976 1.416C6.872 1.064 7.736 0.887999 8.568 0.887999H19.032C19.864 0.887999 20.728 1.064 21.624 1.416C22.52 1.768 23.384 2.216 24.216 2.76H24.168C25 3.368 25.64 4.168 26.088 5.16C26.536 6.12 26.76 7.24 26.76 8.52V11.352C26.76 12.856 25.8 13.608 23.88 13.608C21.992 13.608 21.048 12.856 21.048 11.352V8.952C21.048 8.152 20.808 7.416 20.328 6.744C19.848 6.072 19.016 5.736 17.832 5.736H9.768C8.584 5.736 7.752 6.072 7.272 6.744C6.792 7.416 6.552 8.152 6.552 8.952V13.848C6.552 14.68 6.792 15.432 7.272 16.104C7.752 16.744 8.584 17.064 9.768 17.064H19.032ZM47.1248 37.08C47.1248 38.616 46.1648 39.384 44.2448 39.384C42.3568 39.384 41.4128 38.616 41.4128 37.08V5.736H33.0128C31.8608 5.736 31.2528 4.92 31.1888 3.288C31.1888 1.688 31.7968 0.887999 33.0128 0.887999H55.5248C56.7408 0.887999 57.3168 1.688 57.2528 3.288C57.2528 4.92 56.6768 5.736 55.5248 5.736H47.1248V37.08ZM75.1271 23.208H71.4311C70.8871 23.208 70.4551 23 70.1351 22.584C69.8471 22.136 69.7031 21.544 69.7031 20.808C69.7031 19.176 70.3751 18.36 71.7191 18.36H77.3351C78.5191 18.36 79.3511 18.024 79.8311 17.352C80.3111 16.68 80.5511 15.944 80.5511 15.144V8.952C80.5511 8.152 80.3111 7.416 79.8311 6.744C79.3511 6.072 78.5191 5.736 77.3351 5.736H67.2071V37.032C67.2071 38.568 66.2631 39.336 64.3751 39.336C62.4871 39.336 61.5431 38.568 61.5431 37.032V3.768C61.5431 2.616 61.8311 1.848 62.4071 1.464C63.0151 1.08 63.7351 0.887999 64.5671 0.887999H78.5351C79.3671 0.887999 80.2311 1.064 81.1271 1.416C82.0231 1.768 82.8871 2.216 83.7191 2.76H83.6711C84.5031 3.368 85.1431 4.168 85.5911 5.16C86.0391 6.12 86.2631 7.24 86.2631 8.52V15.528C86.2631 18.12 85.3991 20.056 83.6711 21.336C83.3191 21.592 82.9351 21.832 82.5191 22.056C82.1351 22.28 81.7351 22.504 81.3191 22.728L88.9991 35.4C89.0951 35.56 89.1911 35.768 89.2871 36.024C89.3831 36.28 89.4311 36.488 89.4311 36.648C89.4311 37.416 88.8871 38.152 87.7991 38.856V38.808C87.0631 39.256 86.4391 39.48 85.9271 39.48C85.1911 39.48 84.5991 39.112 84.1511 38.376L84.1991 38.424L75.1271 23.208ZM97.7747 39C96.8 39 96.0806 38.5127 95.6165 37.538C95.4773 37.2595 95.4076 36.981 95.4076 36.7025V3.00633C95.4076 2.03164 95.8486 1.33544 96.7304 0.917723C97.0089 0.778482 97.3106 0.708862 97.6355 0.708862H117.686C118.336 0.708862 118.823 0.917723 119.148 1.33544C119.473 1.70675 119.635 2.14768 119.635 2.65823C119.635 3.16878 119.473 3.63291 119.148 4.05063C118.823 4.42194 118.336 4.6076 117.686 4.6076H100.072V17.3481H116.781C117.477 17.3481 117.988 17.557 118.313 17.9747C118.638 18.346 118.8 18.7869 118.8 19.2975C118.8 19.7616 118.614 20.2025 118.243 20.6203C117.918 21.038 117.431 21.2468 116.781 21.2468H100.072V35.1013H118.382C119.032 35.1013 119.519 35.3101 119.844 35.7278C120.216 36.0992 120.401 36.5401 120.401 37.0506C120.401 37.5612 120.239 38.0253 119.914 38.443C119.589 38.8143 119.079 39 118.382 39H97.7747ZM140.188 5.592L129.676 37.848V37.8C129.484 38.28 129.212 38.68 128.86 39C128.54 39.288 128.14 39.432 127.66 39.432C127.404 39.432 127.148 39.4 126.892 39.336C126.668 39.304 126.428 39.256 126.172 39.192H126.22C124.396 38.616 123.724 37.592 124.204 36.12L135.148 2.856C135.308 2.344 135.58 1.912 135.964 1.56C136.38 1.208 136.86 0.999999 137.404 0.935998C137.948 0.839997 138.476 0.775997 138.988 0.743998C139.5 0.679998 139.9 0.647999 140.188 0.647999C140.476 0.647999 140.876 0.679998 141.388 0.743998C141.9 0.775997 142.428 0.823997 142.972 0.887999C143.42 0.951998 143.852 1.192 144.268 1.608C144.716 2.024 145.052 2.44 145.276 2.856C147.068 8.36 148.876 13.912 150.7 19.512C152.556 25.08 154.38 30.616 156.172 36.12C156.62 37.592 155.948 38.616 154.156 39.192C153.9 39.256 153.66 39.304 153.436 39.336C153.244 39.4 153.02 39.432 152.764 39.432C152.316 39.432 151.9 39.288 151.516 39C151.164 38.68 150.908 38.28 150.748 37.8V37.848L140.188 5.592ZM143.788 27.48C143.788 28.504 143.42 29.384 142.684 30.12C141.98 30.824 141.116 31.176 140.092 31.176C139.068 31.176 138.204 30.824 137.5 30.12C136.796 29.384 136.444 28.504 136.444 27.48C136.444 26.456 136.796 25.592 137.5 24.888C138.204 24.152 139.068 23.784 140.092 23.784C141.116 23.784 141.98 24.152 142.684 24.888C143.42 25.592 143.788 26.456 143.788 27.48ZM189.894 0.647999C190.918 0.647999 192.038 0.887999 193.254 1.368C194.374 1.816 194.934 2.664 194.934 3.912V36.984C194.934 38.52 193.99 39.288 192.102 39.288C190.214 39.288 189.27 38.52 189.27 36.984V12.312L187.878 12.168L185.958 18.408L180.198 37.608C179.846 38.728 178.982 39.272 177.606 39.24C176.998 39.208 176.47 39.048 176.022 38.76C175.574 38.472 175.27 38.056 175.11 37.512L171.654 26.328C170.95 24.12 170.246 21.88 169.542 19.608C168.838 17.304 168.07 14.76 167.238 11.976L165.846 12.168V36.984C165.846 38.52 164.902 39.288 163.014 39.288C161.126 39.288 160.182 38.52 160.182 36.984V3.912C160.182 2.696 160.742 1.848 161.862 1.368C163.046 0.887999 164.182 0.663999 165.27 0.695998C165.75 0.695998 166.246 0.759998 166.758 0.887999C167.27 1.016 167.75 1.208 168.198 1.464C168.646 1.688 169.046 1.992 169.398 2.376C169.75 2.728 170.022 3.144 170.214 3.624L177.75 29.304C178.294 27.416 178.87 25.368 179.478 23.16C180.086 20.952 180.71 18.712 181.35 16.44C181.99 14.168 182.614 11.928 183.222 9.72C183.862 7.48 184.454 5.4 184.998 3.48C185.19 3.032 185.462 2.632 185.814 2.28C186.166 1.928 186.566 1.64 187.014 1.416C187.462 1.16 187.926 0.967999 188.406 0.839999C188.918 0.711999 189.414 0.647999 189.894 0.647999ZM227.592 31.32C227.592 33.912 226.728 35.848 225 37.128C224.168 37.736 223.304 38.216 222.408 38.568C221.544 38.888 220.696 39.048 219.864 39.048H209.4C208.568 39.048 207.704 38.888 206.808 38.568C205.944 38.216 205.096 37.736 204.264 37.128C203.432 36.488 202.792 35.704 202.344 34.776C201.896 33.816 201.672 32.664 201.672 31.32V2.952C201.672 1.416 202.616 0.647999 204.504 0.647999C206.424 0.647999 207.384 1.416 207.384 2.952V30.936C207.384 31.768 207.624 32.52 208.104 33.192C208.584 33.864 209.416 34.2 210.6 34.2H218.664C219.848 34.2 220.68 33.864 221.16 33.192C221.64 32.52 221.88 31.768 221.88 30.936V2.952C221.88 1.416 222.824 0.647999 224.712 0.647999C226.632 0.647999 227.592 1.416 227.592 2.952V31.32ZM253.146 17.064C253.978 17.064 254.842 17.24 255.738 17.592C256.634 17.944 257.498 18.408 258.33 18.984H258.282C259.114 19.56 259.754 20.344 260.202 21.336C260.65 22.328 260.874 23.464 260.874 24.744V31.32C260.874 33.912 260.01 35.848 258.282 37.128C257.45 37.736 256.586 38.216 255.69 38.568C254.826 38.888 253.978 39.048 253.146 39.048H242.682C241.85 39.048 240.986 38.888 240.09 38.568C239.226 38.216 238.378 37.736 237.546 37.128C235.818 35.848 234.954 33.912 234.954 31.32V28.152C234.954 26.648 235.898 25.896 237.786 25.896C239.706 25.896 240.666 26.648 240.666 28.152V30.936C240.666 31.768 240.906 32.52 241.386 33.192C241.866 33.864 242.698 34.2 243.882 34.2H251.946C253.13 34.2 253.962 33.864 254.442 33.192C254.922 32.52 255.162 31.768 255.162 30.936V25.128C255.162 24.328 254.922 23.592 254.442 22.92C253.962 22.216 253.13 21.864 251.946 21.864H242.682C241.018 21.864 239.306 21.256 237.546 20.04C235.818 18.696 234.954 16.76 234.954 14.232V8.52C234.954 7.24 235.178 6.12 235.626 5.16C236.074 4.168 236.714 3.368 237.546 2.76H237.498C238.33 2.216 239.194 1.768 240.09 1.416C240.986 1.064 241.85 0.887999 242.682 0.887999H253.146C253.978 0.887999 254.842 1.064 255.738 1.416C256.634 1.768 257.498 2.216 258.33 2.76H258.282C259.114 3.368 259.754 4.168 260.202 5.16C260.65 6.12 260.874 7.24 260.874 8.52V11.352C260.874 12.856 259.914 13.608 257.994 13.608C256.106 13.608 255.162 12.856 255.162 11.352V8.952C255.162 8.152 254.922 7.416 254.442 6.744C253.962 6.072 253.13 5.736 251.946 5.736H243.882C242.698 5.736 241.866 6.072 241.386 6.744C240.906 7.416 240.666 8.152 240.666 8.952V13.848C240.666 14.68 240.906 15.432 241.386 16.104C241.866 16.744 242.698 17.064 243.882 17.064H253.146ZM271.495 39.048C270.311 39.048 269.511 38.744 269.095 38.136C268.679 37.528 268.471 36.856 268.471 36.12V3.768C268.471 3.032 268.679 2.376 269.095 1.8C269.511 1.192 270.311 0.887999 271.495 0.887999H288.199C289.383 0.887999 290.007 1.688 290.071 3.288C290.135 4.92 289.511 5.736 288.199 5.736H274.135V34.2H289.063C290.247 34.2 290.855 34.984 290.887 36.552C290.951 38.216 290.343 39.048 289.063 39.048H271.495ZM286.423 19.176C286.423 20.296 286.023 21.24 285.223 22.008C284.455 22.776 283.511 23.16 282.391 23.16C281.303 23.16 280.375 22.776 279.607 22.008C278.839 21.24 278.455 20.296 278.455 19.176C278.455 18.056 278.839 17.112 279.607 16.344C280.375 15.576 281.303 15.192 282.391 15.192C283.511 15.192 284.455 15.576 285.223 16.344C286.023 17.112 286.423 18.056 286.423 19.176Z" fill="white"/>
</svg>
